<svg width="29" height="26" viewBox="0 0 29 26" fill="none" xmlns="http://www.w3.org/2000/svg">
<path d="M27.8633 4.15C27.7113 4.06223 27.5389 4.01603 27.3633 4.01603C27.1878 4.01603 27.0153 4.06223 26.8633 4.15L18.3333 8.38V5C18.3328 4.82954 18.2887 4.66203 18.2052 4.5134C18.1218 4.36477 18.0017 4.23994 17.8564 4.15076C17.7111 4.06159 17.5455 4.01104 17.3752 4.0039C17.2049 3.99677 17.0355 4.03329 16.8833 4.11L8.33331 8.38V1C8.33331 0.734784 8.22796 0.48043 8.04042 0.292893C7.85288 0.105357 7.59853 0 7.33331 0H1.33331C1.0681 0 0.813743 0.105357 0.626206 0.292893C0.43867 0.48043 0.333313 0.734784 0.333313 1V26H28.3333V5C28.3337 4.83006 28.2907 4.66283 28.2084 4.51411C28.1262 4.36538 28.0074 4.24007 27.8633 4.15ZM20.3333 24H16.3333V17H20.3333V24ZM26.3333 24H22.3333V16C22.3333 15.7348 22.228 15.4804 22.0404 15.2929C21.8529 15.1054 21.5985 15 21.3333 15H15.3333C15.0681 15 14.8137 15.1054 14.6262 15.2929C14.4387 15.4804 14.3333 15.7348 14.3333 16V24H2.33331V2H6.33331V11.62L16.3333 6.62V11.62L26.3333 6.62V24Z" fill="#E0E0E0"/>
</svg>
