<svg width="30" height="22" viewBox="0 0 30 22" fill="none" xmlns="http://www.w3.org/2000/svg">
<path d="M7.33327 19.3333C6.2266 19.3333 5.33327 18.44 5.33327 17.3333C5.33327 16.2267 6.2266 15.3333 7.33327 15.3333C8.43994 15.3333 9.33327 16.2267 9.33327 17.3333C9.33327 18.44 8.43994 19.3333 7.33327 19.3333ZM5.33327 7.33333H8.6666V10.6667H2.71994L5.33327 7.33333ZM23.3333 19.3333C22.2266 19.3333 21.3333 18.44 21.3333 17.3333C21.3333 16.2267 22.2266 15.3333 23.3333 15.3333C24.4399 15.3333 25.3333 16.2267 25.3333 17.3333C25.3333 18.44 24.4399 19.3333 23.3333 19.3333ZM4.6666 5.33333L0.666605 10.6667V17.3333H3.33327C3.33327 19.5467 5.11994 21.3333 7.33327 21.3333C9.5466 21.3333 11.3333 19.5467 11.3333 17.3333H19.3333C19.3333 19.5467 21.1199 21.3333 23.3333 21.3333C25.5466 21.3333 27.3333 19.5467 27.3333 17.3333H29.9999V2.66667C29.9999 1.18667 28.8133 0 27.3333 0H8.6666V5.33333H4.6666ZM27.3333 2.66667V14.6667H26.3199C25.5866 13.8533 24.5199 13.3333 23.3333 13.3333C22.1466 13.3333 21.0799 13.8533 20.3466 14.6667H11.3333V2.66667H27.3333Z" fill="#E0E0E0"/>
</svg>
