<svg width="24" height="24" viewBox="0 0 24 24" fill="none" xmlns="http://www.w3.org/2000/svg">
<path d="M1 9.998C0.734784 9.998 0.48043 9.89264 0.292893 9.70511C0.105357 9.51757 0 9.26322 0 8.998V1C0 0.734784 0.105357 0.48043 0.292893 0.292893C0.48043 0.105357 0.734784 0 1 0H9C9.26522 0 9.51957 0.105357 9.70711 0.292893C9.89464 0.48043 10 0.734784 10 1V8.998C10 9.26322 9.89464 9.51757 9.70711 9.70511C9.51957 9.89264 9.26522 9.998 9 9.998H1ZM15 9.998C14.7348 9.998 14.4804 9.89264 14.2929 9.70511C14.1054 9.51757 14 9.26322 14 8.998V1C14 0.734784 14.1054 0.48043 14.2929 0.292893C14.4804 0.105357 14.7348 0 15 0H22.998C23.2632 0 23.5176 0.105357 23.7051 0.292893C23.8926 0.48043 23.998 0.734784 23.998 1V8.998C23.998 9.26322 23.8926 9.51757 23.7051 9.70511C23.5176 9.89264 23.2632 9.998 22.998 9.998H15ZM1 23.998C0.734784 23.998 0.48043 23.8926 0.292893 23.7051C0.105357 23.5176 0 23.2632 0 22.998V14.998C0 14.7328 0.105357 14.4784 0.292893 14.2909C0.48043 14.1034 0.734784 13.998 1 13.998H9C9.26522 13.998 9.51957 14.1034 9.70711 14.2909C9.89464 14.4784 10 14.7328 10 14.998V22.998C10 23.2632 9.89464 23.5176 9.70711 23.7051C9.51957 23.8926 9.26522 23.998 9 23.998H1ZM15 23.998C14.7348 23.998 14.4804 23.8926 14.2929 23.7051C14.1054 23.5176 14 23.2632 14 22.998V14.998C14 14.7328 14.1054 14.4784 14.2929 14.2909C14.4804 14.1034 14.7348 13.998 15 13.998H22.998C23.2632 13.998 23.5176 14.1034 23.7051 14.2909C23.8926 14.4784 23.998 14.7328 23.998 14.998V22.998C23.998 23.2632 23.8926 23.5176 23.7051 23.7051C23.5176 23.8926 23.2632 23.998 22.998 23.998H15Z" fill="#E0E0E0"/>
</svg>
