<svg width="27" height="25" viewBox="0 0 27 25" fill="none" xmlns="http://www.w3.org/2000/svg">
<path id="Vector" d="M22.2933 15.7877C22.76 14.6543 23.0133 13.441 23.0133 12.1077C23.0133 11.1477 22.8667 10.2277 22.6133 9.37434C21.7467 9.57434 20.84 9.68101 19.8933 9.68101C17.9546 9.68309 16.0438 9.21904 14.322 8.32797C12.6002 7.43691 11.1179 6.14495 10 4.56101C8.80413 7.45458 6.54817 9.78208 3.69333 11.0677C3.64 11.401 3.64 11.761 3.64 12.1077C3.64 13.3806 3.89073 14.6411 4.37786 15.8172C4.865 16.9932 5.579 18.0618 6.47911 18.9619C8.29696 20.7798 10.7625 21.801 13.3333 21.801C14.7333 21.801 16.08 21.4943 17.2933 20.9477C18.0533 22.401 18.4 23.121 18.3733 23.121C16.1867 23.8543 14.4933 24.2143 13.3333 24.2143C10.1067 24.2143 7.02667 22.9477 4.76 20.6677C3.38133 19.2932 2.35649 17.605 1.77333 15.7477H0V9.68101H1.45333C1.89366 7.53769 2.90599 5.55356 4.38292 3.93913C5.85985 2.32471 7.74628 1.14022 9.84204 0.511354C11.9378 -0.117511 14.1647 -0.167295 16.2865 0.367285C18.4083 0.901865 20.3457 2.00087 21.8933 3.54768C23.5736 5.22135 24.7197 7.35581 25.1867 9.68101H26.6667V15.7477H26.5867L21.84 20.1077L14.7733 19.3077V17.081H21.2133L22.2933 15.7877ZM9.69333 11.801C10.0933 11.801 10.48 11.961 10.76 12.2543C11.0414 12.538 11.1993 12.9214 11.1993 13.321C11.1993 13.7206 11.0414 14.104 10.76 14.3877C10.48 14.6677 10.0933 14.8277 9.69333 14.8277C8.85333 14.8277 8.17333 14.161 8.17333 13.321C8.17333 12.481 8.85333 11.801 9.69333 11.801ZM16.96 11.801C17.8 11.801 18.4667 12.481 18.4667 13.321C18.4667 14.161 17.8 14.8277 16.96 14.8277C16.12 14.8277 15.44 14.161 15.44 13.321C15.44 12.9179 15.6001 12.5313 15.8852 12.2462C16.1703 11.9612 16.5569 11.801 16.96 11.801Z" fill="#E0E0E0"/>
</svg>
